Coordinates
version=1
nRows=24
nColumns=24
inDegrees=yes

Units are S.I. units (second, meters, Newtons, ...)
If the header above contains a line with 'inDegrees', this indicates whether rotational values are in degrees (yes) or radians (no).

endheader
time	pelvis_tilt	pelvis_list	pelvis_rotation	pelvis_tx	pelvis_ty	pelvis_tz	hip_flexion_r	hip_adduction_r	hip_rotation_r	knee_angle_r	ankle_angle_r	subtalar_angle_r	mtp_angle_r	hip_flexion_l	hip_adduction_l	hip_rotation_l	knee_angle_l	ankle_angle_l	subtalar_angle_l	mtp_angle_l	lumbar_extension	lumbar_bending	lumbar_rotation
      0.00000000	      0.40374776	      2.23695756	      6.72846923	     -1.43128736	      0.78009360	      0.05596657	     27.19241988	     -6.44726445	    -12.45692726	    -17.68121431	      2.80816218	      5.31509283	      0.00000000	     -3.70958705	      3.61879917	      4.24059080	    -21.15324014	     15.11105579	     -1.22130220	      0.00000000	      0.00000000	      0.00000000	      0.00000000
      0.00500000	      0.20270222	      2.36780004	      6.85793914	     -1.42581657	      0.77934530	      0.05626149	     27.21789836	     -6.61885488	    -13.06520440	    -16.02499060	      2.73038733	      5.61883214	      0.00000000	     -3.93431270	      3.69923223	      4.44483405	    -21.16762962	     14.97465691	     -1.34005084	      0.00000000	      0.00000000	      0.00000000	      0.00000000
      0.01000000	      0.19900861	      2.45943708	      6.97242394	     -1.42027128	      0.77876543	      0.05655622	     27.03655630	     -6.72658986	    -13.75660684	    -14.46716553	      2.72816751	      6.04934882	      0.00000000	     -4.35242904	      3.69541635	      4.57722732	    -21.21240893	     14.94189512	     -1.32285754	      0.00000000	      0.00000000	      0.00000000	      0.00000000
      0.01500000	     -0.01791388	      2.69628209	      6.84511765	     -1.41471593	      0.77784167	      0.05708953	     27.24934808	     -6.88042749	    -14.07682325	    -13.22352424	      2.87850709	      6.17173130	      0.00000000	     -4.57332981	      3.89016421	      4.43046873	    -21.23111575	     14.97725045	     -1.31106487	      0.00000000	      0.00000000	      0.00000000	      0.00000000
      0.02000000	     -0.17156862	      2.71060711	      6.91000161	     -1.40904995	      0.77714493	      0.05752975	     27.20742368	     -6.83627948	    -14.43429316	    -11.77070691	      2.87439242	      6.62133606	      0.00000000	     -4.79306820	      3.82458462	      4.59836388	    -21.35804983	     14.84030053	     -1.14129589	      0.00000000	      0.00000000	      0.00000000	      0.00000000
      0.02500000	     -0.08026997	      2.64268060	      7.06666584	     -1.40316458	      0.77667606	      0.05794963	     26.94576928	     -6.76527906	    -15.33766213	    -10.54204151	      2.90128546	      7.03680796	      0.00000000	     -5.28536017	      3.58934136	      4.70837208	    -21.45400997	     14.83836248	     -0.86182151	      0.00000000	      0.00000000	      0.00000000	      0.00000000
      0.03000000	     -0.21920932	      2.79743255	      6.95984666	     -1.39746202	      0.77582098	      0.05852530	     27.12438300	     -6.81642181	    -15.61017719	     -9.67201954	      3.06879045	      7.14608091	      0.00000000	     -5.55048249	      3.67778932	      4.63839162	    -21.54610627	     14.84704833	     -0.80782655	      0.00000000	      0.00000000	      0.00000000	      0.00000000
      0.03500000	      0.01315981	      2.66760412	      7.07089810	     -1.39136647	      0.77546663	      0.05897434	     26.74699556	     -6.64977457	    -16.42136662	     -8.73789607	      3.29729161	      7.83933034	      0.00000000	     -6.18059502	      3.35129291	      4.71553813	    -21.68464259	     14.88874417	     -0.31113546	      0.00000000	      0.00000000	      0.00000000	      0.00000000
      0.04000000	     -0.13576626	      2.75035047	      6.98307081	     -1.38546682	      0.77463098	      0.05951523	     26.94615169	     -6.63530878	    -16.58298759	     -8.12189652	      3.46997903	      7.92180093	      0.00000000	     -6.42192314	      3.36873357	      4.72410146	    -21.80670811	     14.81414787	     -0.24497463	      0.00000000	      0.00000000	      0.00000000	      0.00000000
      0.04500000	     -0.21698393	      2.81682707	      6.86049129	     -1.37967294	      0.77379322	      0.06012909	     27.16968246	     -6.59487310	    -16.69820327	     -7.76393044	      3.56593733	      7.93530166	      0.00000000	     -6.69083051	      3.37389243	      4.78052820	    -22.01595535	     14.75904687	     -0.20686907	      0.00000000	      0.00000000	      0.00000000	      0.00000000
      0.05000000	     -0.31356035	      2.84807536	      6.77803629	     -1.37364870	      0.77298536	      0.06051961	     27.36375957	     -6.55819764	    -16.77841900	     -7.46658202	      3.66744355	      7.95035861	      0.00000000	     -6.95710770	      3.35153998	      4.84779934	    -22.20607812	     14.68866260	     -0.15996677	      0.00000000	      0.00000000	      0.00000000	      0.00000000
      0.05500000	     -0.42786619	      2.73385007	      6.87079769	     -1.36728045	      0.77230844	      0.06106479	     27.41258255	     -6.38547730	    -16.83162354	     -7.09557640	      4.06074692	      8.05189151	      0.00000000	     -7.24635357	      3.10573460	      5.11734687	    -22.29578793	     14.35012071	      0.08968824	      0.00000000	      0.00000000	      0.00000000	      0.00000000
      0.06000000	     -0.52413186	      2.77511667	      6.90780854	     -1.36103510	      0.77154565	      0.06145409	     27.57826258	     -6.40715778	    -16.82008813	     -7.03008656	      4.06322220	      8.05349467	      0.00000000	     -7.51181183	      3.03191314	      5.12326397	    -22.45301125	     14.33514317	      0.08792214	      0.00000000	      0.00000000	      0.00000000	      0.00000000
      0.06500000	     -0.50603348	      2.69235409	      6.77351626	     -1.35485259	      0.77081340	      0.06193288	     27.73287660	     -6.23748943	    -16.77896835	     -7.20107328	      4.18300753	      8.01193736	      0.00000000	     -7.84434966	      2.91490793	      5.40021396	    -22.79189461	     14.13541466	      0.20981092	      0.00000000	      0.00000000	      0.00000000	      0.00000000
      0.07000000	     -0.49766939	      2.59903364	      6.79674523	     -1.34851387	      0.77011354	      0.06228641	     27.87496020	     -6.13624115	    -16.64286771	     -7.52982902	      4.29888599	      7.95327482	      0.00000000	     -8.19472483	      2.72218258	      5.62246015	    -23.02321661	     13.93155661	      0.32539194	      0.00000000	      0.00000000	      0.00000000	      0.00000000
      0.07500000	     -0.33539419	      2.63021229	      6.73995262	     -1.34193350	      0.76956934	      0.06274779	     27.88694950	     -6.10679252	    -16.45762148	     -8.05726064	      4.87876076	      7.64921776	      0.00000000	     -8.80904612	      2.64112858	      5.82950828	    -23.09427295	     13.43161133	      0.56401386	      0.00000000	      0.00000000	      0.00000000	      0.00000000
      0.08000000	     -0.32223268	      2.51259372	      6.77809759	     -1.33543182	      0.76887136	      0.06305145	     28.00921063	     -5.99185319	    -16.19334628	     -8.54773840	      4.82847846	      7.63351315	      0.00000000	     -9.13837068	      2.42278550	      6.06086547	    -23.38528285	     13.27429752	      0.61608029	      0.00000000	      0.00000000	      0.00000000	      0.00000000
      0.08500000	     -0.14238771	      2.59410085	      6.53260099	     -1.32884095	      0.76825455	      0.06354099	     28.10862560	     -5.94187938	    -15.59437012	     -9.37026860	      5.10497131	      7.15576598	      0.00000000	     -9.77504665	      2.47337631	      6.22187726	    -23.48829436	     12.72169285	      0.63706343	      0.00000000	      0.00000000	      0.00000000	      0.00000000
      0.09000000	     -0.12846575	      2.43083869	      6.63932279	     -1.32215657	      0.76755827	      0.06375234	     28.22593417	     -5.81714983	    -15.24999577	    -10.04923018	      4.98304837	      7.11775545	      0.00000000	    -10.09870799	      2.19245264	      6.46953909	    -23.78560052	     12.54155361	      0.67695240	      0.00000000	      0.00000000	      0.00000000	      0.00000000
      0.09500000	      0.04185659	      2.53387486	      6.21413642	     -1.31546453	      0.76692844	      0.06445886	     28.28590827	     -5.57889961	    -13.78596446	    -10.82049384	      4.63107039	      5.34870904	      0.00000000	    -10.79385487	      2.35707484	      6.69113894	    -23.77316981	     11.59421744	      0.10758580	      0.00000000	      0.00000000	      0.00000000	      0.00000000
      0.10000000	      0.14389953	      2.44336206	      6.14417137	     -1.30871911	      0.76622789	      0.06486504	     28.47267474	     -5.44884322	    -13.38857564	    -11.88054648	      4.48141973	      4.99664178	      0.00000000	    -11.19490468	      2.18451705	      6.80356232	    -24.12273378	     11.20080248	      0.25022508	      0.00000000	      0.00000000	      0.00000000	      0.00000000
      0.10500000	      0.22725551	      2.27673478	      6.16118618	     -1.30192214	      0.76554131	      0.06520770	     28.61295923	     -5.26400705	    -12.95935332	    -12.88993016	      4.27055575	      4.79606687	      0.00000000	    -11.53639937	      1.93063159	      7.00892395	    -24.52687329	     10.85550808	      0.34640558	      0.00000000	      0.00000000	      0.00000000	      0.00000000
      0.11000000	      0.27119536	      2.22042805	      5.78921949	     -1.29514643	      0.76475983	      0.06610187	     28.76067395	     -4.80947415	    -11.29128267	    -13.67941215	      3.35168366	      2.58068199	      0.00000000	    -11.86657313	      1.83843947	      6.70468566	    -24.85634743	     10.04448989	      0.34171002	      0.00000000	      0.00000000	      0.00000000	      0.00000000
      0.11500000	      0.38801622	      2.03438974	      5.62187698	     -1.28828073	      0.76403839	      0.06674577	     28.89960351	     -4.44101775	    -10.49815934	    -14.73504498	      2.76089425	      1.60687722	      0.00000000	    -12.17791361	      1.54991215	      6.44578345	    -25.35459286	      9.49899701	      0.63395902	      0.00000000	      0.00000000	      0.00000000	      0.00000000
